<svg xmlns="http://www.w3.org/2000/svg" viewBox="0 0 200 80" width="200" height="80">
  <!-- Logo Sitrad reproduisant fidèlement le design -->
  
  <!-- Première forme courbe rouge (gauche) -->
  <path d="M15 20 Q30 10, 45 20 Q60 30, 75 20 Q90 10, 105 20 Q120 30, 135 20 Q150 10, 165 20 Q180 30, 195 20 L195 35 Q180 45, 165 35 Q150 25, 135 35 Q120 45, 105 35 Q90 25, 75 35 Q60 45, 45 35 Q30 25, 15 35 Z" fill="#E31E24"/>
  
  <!-- Deuxième forme courbe rouge (centre-droite) -->
  <ellipse cx="160" cy="27" rx="30" ry="18" fill="#E31E24" transform="rotate(-15 160 27)"/>
  
  <!-- Troisième forme courbe rouge (droite) -->
  <ellipse cx="185" cy="25" rx="15" ry="12" fill="#E31E24" transform="rotate(20 185 25)"/>
  
  <!-- Texte Sitrad avec le style exact -->
  <text x="15" y="65" font-family="Arial, sans-serif" font-size="28" font-weight="bold">
    <tspan fill="#2C2C2C">S</tspan><tspan fill="#4CAF50">i</tspan><tspan fill="#2C2C2C">trad</tspan>
  </text>
</svg>